<mxfile host="app.diagrams.net" modified="2023-07-04T09:22:29.881Z" agent="Mozilla/5.0 (Macintosh; Intel Mac OS X 10_15_7) AppleWebKit/537.36 (KHTML, like Gecko) Chrome/113.0.0.0 Safari/537.36" etag="VmddePFovSZxsNJ2gIRS" version="21.5.2" type="github">
  <diagram name="Page-1" id="2YBvvXClWsGukQMizWep">
    <mxGraphModel dx="1283" dy="826" grid="1" gridSize="10" guides="1" tooltips="1" connect="1" arrows="1" fold="1" page="1" pageScale="1" pageWidth="850" pageHeight="1100" math="0" shadow="0">
      <root>
        <mxCell id="0" />
        <mxCell id="1" parent="0" />
        <mxCell id="4RSHPxg-54Gd9_lzuNZA-34" value="&amp;nbsp;Memery Order" style="swimlane;childLayout=stackLayout;resizeParent=1;resizeParentMax=0;startSize=20;html=1;fillColor=#f8cecc;strokeColor=#b85450;" vertex="1" parent="1">
          <mxGeometry x="500.00000000000045" y="470" width="380" height="310" as="geometry" />
        </mxCell>
        <mxCell id="4RSHPxg-54Gd9_lzuNZA-35" value="User1" style="swimlane;startSize=20;html=1;" vertex="1" parent="4RSHPxg-54Gd9_lzuNZA-34">
          <mxGeometry y="20" width="120" height="290" as="geometry" />
        </mxCell>
        <mxCell id="4RSHPxg-54Gd9_lzuNZA-59" value="" style="edgeStyle=orthogonalEdgeStyle;rounded=0;orthogonalLoop=1;jettySize=auto;html=1;dashed=1;fillColor=#dae8fc;strokeColor=#6c8ebf;" edge="1" parent="4RSHPxg-54Gd9_lzuNZA-35" source="4RSHPxg-54Gd9_lzuNZA-14" target="4RSHPxg-54Gd9_lzuNZA-38">
          <mxGeometry relative="1" as="geometry" />
        </mxCell>
        <mxCell id="4RSHPxg-54Gd9_lzuNZA-14" value="order 1" style="rounded=0;whiteSpace=wrap;html=1;" vertex="1" parent="4RSHPxg-54Gd9_lzuNZA-35">
          <mxGeometry y="50" width="120" height="50" as="geometry" />
        </mxCell>
        <mxCell id="4RSHPxg-54Gd9_lzuNZA-61" value="" style="edgeStyle=orthogonalEdgeStyle;rounded=0;orthogonalLoop=1;jettySize=auto;html=1;fillColor=#dae8fc;strokeColor=#6c8ebf;dashed=1;" edge="1" parent="4RSHPxg-54Gd9_lzuNZA-35" source="4RSHPxg-54Gd9_lzuNZA-38" target="4RSHPxg-54Gd9_lzuNZA-42">
          <mxGeometry relative="1" as="geometry" />
        </mxCell>
        <mxCell id="4RSHPxg-54Gd9_lzuNZA-38" value="order 2" style="rounded=0;whiteSpace=wrap;html=1;" vertex="1" parent="4RSHPxg-54Gd9_lzuNZA-35">
          <mxGeometry y="140" width="120" height="50" as="geometry" />
        </mxCell>
        <mxCell id="4RSHPxg-54Gd9_lzuNZA-42" value="order 3" style="rounded=0;whiteSpace=wrap;html=1;" vertex="1" parent="4RSHPxg-54Gd9_lzuNZA-35">
          <mxGeometry y="240" width="120" height="50" as="geometry" />
        </mxCell>
        <mxCell id="4RSHPxg-54Gd9_lzuNZA-36" value="User2" style="swimlane;startSize=20;html=1;" vertex="1" parent="4RSHPxg-54Gd9_lzuNZA-34">
          <mxGeometry x="120" y="20" width="130" height="290" as="geometry" />
        </mxCell>
        <mxCell id="4RSHPxg-54Gd9_lzuNZA-63" value="" style="edgeStyle=orthogonalEdgeStyle;rounded=0;orthogonalLoop=1;jettySize=auto;html=1;fillColor=#dae8fc;strokeColor=#6c8ebf;dashed=1;" edge="1" parent="4RSHPxg-54Gd9_lzuNZA-36" source="4RSHPxg-54Gd9_lzuNZA-43" target="4RSHPxg-54Gd9_lzuNZA-45">
          <mxGeometry relative="1" as="geometry" />
        </mxCell>
        <mxCell id="4RSHPxg-54Gd9_lzuNZA-43" value="order 4" style="rounded=0;whiteSpace=wrap;html=1;" vertex="1" parent="4RSHPxg-54Gd9_lzuNZA-36">
          <mxGeometry y="50" width="130" height="50" as="geometry" />
        </mxCell>
        <mxCell id="4RSHPxg-54Gd9_lzuNZA-64" value="" style="edgeStyle=orthogonalEdgeStyle;rounded=0;orthogonalLoop=1;jettySize=auto;html=1;fillColor=#dae8fc;strokeColor=#6c8ebf;dashed=1;" edge="1" parent="4RSHPxg-54Gd9_lzuNZA-36" source="4RSHPxg-54Gd9_lzuNZA-45" target="4RSHPxg-54Gd9_lzuNZA-55">
          <mxGeometry relative="1" as="geometry" />
        </mxCell>
        <mxCell id="4RSHPxg-54Gd9_lzuNZA-45" value="order 5" style="rounded=0;whiteSpace=wrap;html=1;" vertex="1" parent="4RSHPxg-54Gd9_lzuNZA-36">
          <mxGeometry y="140" width="130" height="50" as="geometry" />
        </mxCell>
        <mxCell id="4RSHPxg-54Gd9_lzuNZA-55" value="order 6" style="rounded=0;whiteSpace=wrap;html=1;" vertex="1" parent="4RSHPxg-54Gd9_lzuNZA-36">
          <mxGeometry y="240" width="130" height="50" as="geometry" />
        </mxCell>
        <mxCell id="4RSHPxg-54Gd9_lzuNZA-37" value="User2" style="swimlane;startSize=20;html=1;" vertex="1" parent="4RSHPxg-54Gd9_lzuNZA-34">
          <mxGeometry x="250" y="20" width="130" height="290" as="geometry" />
        </mxCell>
        <mxCell id="4RSHPxg-54Gd9_lzuNZA-66" value="" style="edgeStyle=orthogonalEdgeStyle;rounded=0;orthogonalLoop=1;jettySize=auto;html=1;" edge="1" parent="4RSHPxg-54Gd9_lzuNZA-37" source="4RSHPxg-54Gd9_lzuNZA-56" target="4RSHPxg-54Gd9_lzuNZA-57">
          <mxGeometry relative="1" as="geometry" />
        </mxCell>
        <mxCell id="4RSHPxg-54Gd9_lzuNZA-68" value="" style="edgeStyle=orthogonalEdgeStyle;rounded=0;orthogonalLoop=1;jettySize=auto;html=1;fillColor=#dae8fc;strokeColor=#6c8ebf;dashed=1;" edge="1" parent="4RSHPxg-54Gd9_lzuNZA-37" source="4RSHPxg-54Gd9_lzuNZA-56" target="4RSHPxg-54Gd9_lzuNZA-57">
          <mxGeometry relative="1" as="geometry" />
        </mxCell>
        <mxCell id="4RSHPxg-54Gd9_lzuNZA-56" value="order 5" style="rounded=0;whiteSpace=wrap;html=1;" vertex="1" parent="4RSHPxg-54Gd9_lzuNZA-37">
          <mxGeometry y="50" width="130" height="50" as="geometry" />
        </mxCell>
        <mxCell id="4RSHPxg-54Gd9_lzuNZA-67" value="" style="edgeStyle=orthogonalEdgeStyle;rounded=0;orthogonalLoop=1;jettySize=auto;html=1;dashed=1;" edge="1" parent="4RSHPxg-54Gd9_lzuNZA-37" source="4RSHPxg-54Gd9_lzuNZA-57" target="4RSHPxg-54Gd9_lzuNZA-58">
          <mxGeometry relative="1" as="geometry" />
        </mxCell>
        <mxCell id="4RSHPxg-54Gd9_lzuNZA-57" value="order 7" style="rounded=0;whiteSpace=wrap;html=1;" vertex="1" parent="4RSHPxg-54Gd9_lzuNZA-37">
          <mxGeometry y="140" width="130" height="50" as="geometry" />
        </mxCell>
        <mxCell id="4RSHPxg-54Gd9_lzuNZA-58" value="order 9" style="rounded=0;whiteSpace=wrap;html=1;" vertex="1" parent="4RSHPxg-54Gd9_lzuNZA-37">
          <mxGeometry y="240" width="130" height="50" as="geometry" />
        </mxCell>
        <mxCell id="4RSHPxg-54Gd9_lzuNZA-74" value="开仓" style="rounded=1;whiteSpace=wrap;html=1;" vertex="1" parent="1">
          <mxGeometry x="520" y="310" width="100" height="40" as="geometry" />
        </mxCell>
        <mxCell id="4RSHPxg-54Gd9_lzuNZA-75" value="平仓" style="rounded=1;whiteSpace=wrap;html=1;dashed=1;" vertex="1" parent="1">
          <mxGeometry x="760" y="310" width="100" height="40" as="geometry" />
        </mxCell>
        <mxCell id="4RSHPxg-54Gd9_lzuNZA-79" value="" style="endArrow=classic;html=1;rounded=0;exitX=0.5;exitY=1;exitDx=0;exitDy=0;entryX=0.5;entryY=0;entryDx=0;entryDy=0;" edge="1" parent="1" source="4RSHPxg-54Gd9_lzuNZA-74" target="4RSHPxg-54Gd9_lzuNZA-34">
          <mxGeometry relative="1" as="geometry">
            <mxPoint x="630" y="480" as="sourcePoint" />
            <mxPoint x="790" y="480" as="targetPoint" />
            <Array as="points">
              <mxPoint x="570" y="400" />
              <mxPoint x="690" y="400" />
              <mxPoint x="690" y="430" />
            </Array>
          </mxGeometry>
        </mxCell>
        <mxCell id="4RSHPxg-54Gd9_lzuNZA-80" value="insert" style="edgeLabel;resizable=0;html=1;align=center;verticalAlign=middle;" connectable="0" vertex="1" parent="4RSHPxg-54Gd9_lzuNZA-79">
          <mxGeometry relative="1" as="geometry" />
        </mxCell>
        <mxCell id="4RSHPxg-54Gd9_lzuNZA-82" value="" style="endArrow=classic;html=1;rounded=0;exitX=0.5;exitY=1;exitDx=0;exitDy=0;entryX=0.5;entryY=0;entryDx=0;entryDy=0;" edge="1" parent="1" source="4RSHPxg-54Gd9_lzuNZA-75" target="4RSHPxg-54Gd9_lzuNZA-34">
          <mxGeometry relative="1" as="geometry">
            <mxPoint x="660" y="480" as="sourcePoint" />
            <mxPoint x="760" y="480" as="targetPoint" />
            <Array as="points">
              <mxPoint x="810" y="400" />
              <mxPoint x="690" y="400" />
              <mxPoint x="690" y="430" />
            </Array>
          </mxGeometry>
        </mxCell>
        <mxCell id="4RSHPxg-54Gd9_lzuNZA-83" value="delete" style="edgeLabel;resizable=0;html=1;align=center;verticalAlign=middle;" connectable="0" vertex="1" parent="4RSHPxg-54Gd9_lzuNZA-82">
          <mxGeometry relative="1" as="geometry" />
        </mxCell>
        <mxCell id="4RSHPxg-54Gd9_lzuNZA-97" value="append log" style="swimlane;startSize=20;horizontal=1;containerType=tree;newEdgeStyle={&quot;edgeStyle&quot;:&quot;elbowEdgeStyle&quot;,&quot;startArrow&quot;:&quot;none&quot;,&quot;endArrow&quot;:&quot;none&quot;};fillColor=#ffe6cc;strokeColor=#d79b00;swimlaneFillColor=none;shadow=0;" vertex="1" parent="1">
          <mxGeometry x="1000" y="200" width="220" height="220" as="geometry" />
        </mxCell>
        <mxCell id="4RSHPxg-54Gd9_lzuNZA-98" value="" style="edgeStyle=elbowEdgeStyle;elbow=vertical;sourcePerimeterSpacing=0;targetPerimeterSpacing=0;startArrow=none;endArrow=none;rounded=0;curved=0;" edge="1" parent="4RSHPxg-54Gd9_lzuNZA-97" source="4RSHPxg-54Gd9_lzuNZA-100" target="4RSHPxg-54Gd9_lzuNZA-101">
          <mxGeometry relative="1" as="geometry" />
        </mxCell>
        <UserObject label="Method" treeRoot="1" id="4RSHPxg-54Gd9_lzuNZA-100">
          <mxCell style="whiteSpace=wrap;html=1;align=center;treeFolding=1;treeMoving=1;newEdgeStyle={&quot;edgeStyle&quot;:&quot;elbowEdgeStyle&quot;,&quot;startArrow&quot;:&quot;none&quot;,&quot;endArrow&quot;:&quot;none&quot;};" vertex="1" parent="4RSHPxg-54Gd9_lzuNZA-97">
            <mxGeometry x="48" y="40" width="120" height="60" as="geometry" />
          </mxCell>
        </UserObject>
        <mxCell id="4RSHPxg-54Gd9_lzuNZA-101" value="Params" style="whiteSpace=wrap;html=1;align=center;verticalAlign=middle;treeFolding=1;treeMoving=1;newEdgeStyle={&quot;edgeStyle&quot;:&quot;elbowEdgeStyle&quot;,&quot;startArrow&quot;:&quot;none&quot;,&quot;endArrow&quot;:&quot;none&quot;};" vertex="1" parent="4RSHPxg-54Gd9_lzuNZA-97">
          <mxGeometry x="58" y="150" width="100" height="60" as="geometry" />
        </mxCell>
        <mxCell id="4RSHPxg-54Gd9_lzuNZA-103" value="" style="endArrow=classic;html=1;rounded=0;entryX=0;entryY=0.5;entryDx=0;entryDy=0;" edge="1" parent="1" target="4RSHPxg-54Gd9_lzuNZA-97">
          <mxGeometry relative="1" as="geometry">
            <mxPoint x="690" y="430" as="sourcePoint" />
            <mxPoint x="660" y="580" as="targetPoint" />
            <Array as="points">
              <mxPoint x="930" y="430" />
            </Array>
          </mxGeometry>
        </mxCell>
        <mxCell id="4RSHPxg-54Gd9_lzuNZA-104" value="请求记录" style="edgeLabel;resizable=0;html=1;align=center;verticalAlign=middle;" connectable="0" vertex="1" parent="4RSHPxg-54Gd9_lzuNZA-103">
          <mxGeometry relative="1" as="geometry" />
        </mxCell>
        <mxCell id="4RSHPxg-54Gd9_lzuNZA-114" value="&lt;font style=&quot;font-size: 15px;&quot;&gt;重启系统&lt;/font&gt;" style="html=1;whiteSpace=wrap;container=1;recursiveResize=0;collapsible=0;" vertex="1" parent="1">
          <mxGeometry x="1030" y="50" width="160" height="70" as="geometry" />
        </mxCell>
        <mxCell id="4RSHPxg-54Gd9_lzuNZA-115" value="" style="triangle;html=1;whiteSpace=wrap;" vertex="1" parent="4RSHPxg-54Gd9_lzuNZA-114">
          <mxGeometry x="20" y="20" width="20" height="30" as="geometry" />
        </mxCell>
        <mxCell id="4RSHPxg-54Gd9_lzuNZA-116" value="" style="endArrow=classic;html=1;rounded=0;entryX=0.5;entryY=0;entryDx=0;entryDy=0;" edge="1" parent="1" target="4RSHPxg-54Gd9_lzuNZA-97">
          <mxGeometry width="50" height="50" relative="1" as="geometry">
            <mxPoint x="1110" y="120" as="sourcePoint" />
            <mxPoint x="1110" y="190" as="targetPoint" />
          </mxGeometry>
        </mxCell>
        <mxCell id="4RSHPxg-54Gd9_lzuNZA-119" value="working thread" style="shape=umlLifeline;perimeter=lifelinePerimeter;whiteSpace=wrap;html=1;container=0;dropTarget=0;collapsible=0;recursiveResize=0;outlineConnect=0;portConstraint=eastwest;newEdgeStyle={&quot;edgeStyle&quot;:&quot;elbowEdgeStyle&quot;,&quot;elbow&quot;:&quot;vertical&quot;,&quot;curved&quot;:0,&quot;rounded&quot;:0};" vertex="1" parent="1">
          <mxGeometry x="25" y="10" width="100" height="430" as="geometry" />
        </mxCell>
        <mxCell id="4RSHPxg-54Gd9_lzuNZA-120" value="" style="html=1;points=[];perimeter=orthogonalPerimeter;outlineConnect=0;targetShapes=umlLifeline;portConstraint=eastwest;newEdgeStyle={&quot;edgeStyle&quot;:&quot;elbowEdgeStyle&quot;,&quot;elbow&quot;:&quot;vertical&quot;,&quot;curved&quot;:0,&quot;rounded&quot;:0};" vertex="1" parent="4RSHPxg-54Gd9_lzuNZA-119">
          <mxGeometry x="45" y="70" width="10" height="310" as="geometry" />
        </mxCell>
        <mxCell id="4RSHPxg-54Gd9_lzuNZA-121" value="初始化" style="html=1;verticalAlign=bottom;startArrow=oval;endArrow=block;startSize=8;edgeStyle=elbowEdgeStyle;elbow=vertical;curved=0;rounded=0;" edge="1" parent="4RSHPxg-54Gd9_lzuNZA-119" target="4RSHPxg-54Gd9_lzuNZA-120">
          <mxGeometry relative="1" as="geometry">
            <mxPoint x="-15" y="70" as="sourcePoint" />
          </mxGeometry>
        </mxCell>
        <mxCell id="4RSHPxg-54Gd9_lzuNZA-122" value="" style="html=1;points=[];perimeter=orthogonalPerimeter;outlineConnect=0;targetShapes=umlLifeline;portConstraint=eastwest;newEdgeStyle={&quot;edgeStyle&quot;:&quot;elbowEdgeStyle&quot;,&quot;elbow&quot;:&quot;vertical&quot;,&quot;curved&quot;:0,&quot;rounded&quot;:0};" vertex="1" parent="4RSHPxg-54Gd9_lzuNZA-119">
          <mxGeometry x="50" y="120" width="10" height="80" as="geometry" />
        </mxCell>
        <mxCell id="4RSHPxg-54Gd9_lzuNZA-123" value="&amp;nbsp;守护进程" style="shape=umlLifeline;perimeter=lifelinePerimeter;whiteSpace=wrap;html=1;container=0;dropTarget=0;collapsible=0;recursiveResize=0;outlineConnect=0;portConstraint=eastwest;newEdgeStyle={&quot;edgeStyle&quot;:&quot;elbowEdgeStyle&quot;,&quot;elbow&quot;:&quot;vertical&quot;,&quot;curved&quot;:0,&quot;rounded&quot;:0};" vertex="1" parent="1">
          <mxGeometry x="205" y="10" width="100" height="420" as="geometry" />
        </mxCell>
        <mxCell id="4RSHPxg-54Gd9_lzuNZA-124" value="" style="html=1;points=[];perimeter=orthogonalPerimeter;outlineConnect=0;targetShapes=umlLifeline;portConstraint=eastwest;newEdgeStyle={&quot;edgeStyle&quot;:&quot;elbowEdgeStyle&quot;,&quot;elbow&quot;:&quot;vertical&quot;,&quot;curved&quot;:0,&quot;rounded&quot;:0};" vertex="1" parent="4RSHPxg-54Gd9_lzuNZA-123">
          <mxGeometry x="45" y="80" width="10" height="300" as="geometry" />
        </mxCell>
        <mxCell id="4RSHPxg-54Gd9_lzuNZA-125" value="信号注册" style="html=1;verticalAlign=bottom;endArrow=block;edgeStyle=elbowEdgeStyle;elbow=vertical;curved=0;rounded=0;" edge="1" parent="1" source="4RSHPxg-54Gd9_lzuNZA-120" target="4RSHPxg-54Gd9_lzuNZA-124">
          <mxGeometry relative="1" as="geometry">
            <mxPoint x="180" y="100" as="sourcePoint" />
            <Array as="points">
              <mxPoint x="165" y="90" />
            </Array>
          </mxGeometry>
        </mxCell>
        <mxCell id="4RSHPxg-54Gd9_lzuNZA-126" value="&lt;meta charset=&quot;utf-8&quot;&gt;&lt;span style=&quot;color: rgb(0, 0, 0); font-family: Helvetica; font-size: 11px; font-style: normal; font-variant-ligatures: normal; font-variant-caps: normal; font-weight: 400; letter-spacing: normal; orphans: 2; text-align: center; text-indent: 0px; text-transform: none; widows: 2; word-spacing: 0px; -webkit-text-stroke-width: 0px; background-color: rgb(255, 255, 255); text-decoration-thickness: initial; text-decoration-style: initial; text-decoration-color: initial; float: none; display: inline !important;&quot;&gt;exit()&lt;/span&gt;" style="html=1;verticalAlign=bottom;endArrow=open;dashed=1;endSize=8;edgeStyle=elbowEdgeStyle;elbow=vertical;curved=0;rounded=0;" edge="1" parent="1" source="4RSHPxg-54Gd9_lzuNZA-124" target="4RSHPxg-54Gd9_lzuNZA-120">
          <mxGeometry relative="1" as="geometry">
            <mxPoint x="180" y="175" as="targetPoint" />
            <Array as="points">
              <mxPoint x="175" y="250" />
            </Array>
            <mxPoint as="offset" />
          </mxGeometry>
        </mxCell>
        <mxCell id="4RSHPxg-54Gd9_lzuNZA-127" value="监听" style="html=1;verticalAlign=bottom;endArrow=block;edgeStyle=elbowEdgeStyle;elbow=horizontal;curved=0;rounded=0;" edge="1" parent="1" source="4RSHPxg-54Gd9_lzuNZA-124" target="4RSHPxg-54Gd9_lzuNZA-122">
          <mxGeometry relative="1" as="geometry">
            <mxPoint x="160" y="130" as="sourcePoint" />
            <Array as="points">
              <mxPoint x="175" y="130" />
            </Array>
          </mxGeometry>
        </mxCell>
        <mxCell id="4RSHPxg-54Gd9_lzuNZA-128" value="正常退出" style="html=1;verticalAlign=bottom;endArrow=open;dashed=1;endSize=8;edgeStyle=elbowEdgeStyle;elbow=vertical;curved=0;rounded=0;" edge="1" parent="1" source="4RSHPxg-54Gd9_lzuNZA-122" target="4RSHPxg-54Gd9_lzuNZA-124">
          <mxGeometry relative="1" as="geometry">
            <mxPoint x="160" y="205" as="targetPoint" />
            <Array as="points">
              <mxPoint x="165" y="200" />
            </Array>
          </mxGeometry>
        </mxCell>
        <mxCell id="4RSHPxg-54Gd9_lzuNZA-129" value="非正常退出" style="html=1;verticalAlign=bottom;endArrow=open;dashed=1;endSize=8;edgeStyle=elbowEdgeStyle;elbow=vertical;curved=0;rounded=0;" edge="1" parent="1">
          <mxGeometry relative="1" as="geometry">
            <mxPoint x="250" y="330" as="targetPoint" />
            <Array as="points">
              <mxPoint x="165" y="330" />
            </Array>
            <mxPoint x="85" y="330" as="sourcePoint" />
          </mxGeometry>
        </mxCell>
        <mxCell id="4RSHPxg-54Gd9_lzuNZA-130" value="&lt;span style=&quot;color: rgb(0, 0, 0); font-family: Helvetica; font-size: 11px; font-style: normal; font-variant-ligatures: normal; font-variant-caps: normal; font-weight: 400; letter-spacing: normal; orphans: 2; text-align: center; text-indent: 0px; text-transform: none; widows: 2; word-spacing: 0px; -webkit-text-stroke-width: 0px; background-color: rgb(255, 255, 255); text-decoration-thickness: initial; text-decoration-style: initial; text-decoration-color: initial; float: none; display: inline !important;&quot;&gt;重启&lt;br&gt;&lt;/span&gt;" style="html=1;verticalAlign=bottom;endArrow=open;dashed=1;endSize=8;edgeStyle=elbowEdgeStyle;elbow=vertical;curved=0;rounded=0;" edge="1" parent="1">
          <mxGeometry relative="1" as="geometry">
            <mxPoint x="85" y="380" as="targetPoint" />
            <Array as="points">
              <mxPoint x="180" y="380" />
            </Array>
            <mxPoint x="245" y="380" as="sourcePoint" />
            <mxPoint as="offset" />
          </mxGeometry>
        </mxCell>
      </root>
    </mxGraphModel>
  </diagram>
</mxfile>
